# xmcd
#
# Track frame offsets:
#	150
#	34892
#	44963
#	58276
#	67321
#	79828
#	86448
#	105455
#	116843
#	133160
#	146695
#	155871
#	161996
#	176783
#	186692
#	214418
#	229358
#	242102
#	252901
#	273927
#
# Disc length: 3974 seconds
#
# Revision: 3
# Processed by: cddbd v1.5.2PL0 Copyright (c) Steve Scherf et al.
# Submitted via: EasyCDDAExtractor 16.1.0.1
#
DISCID=4e0f8414
DTITLE=Владимир Высоцкий - 100 лучших песен. Диск 4
DYEAR=1900
DGENRE=Chanson
TTITLE0=Банька по-белому
TTITLE1=Я не люблю
TTITLE2=Песня о друге
TTITLE3=Куплеты Бенгальского
TTITLE4=Москва - Одесса
TTITLE5=Парус
TTITLE6=Баллада о борьбе
TTITLE7=Ноль семь
TTITLE8=Натянутый канат
TTITLE9=Тот, кто раньше с нею был
TTITLE10=Татуировка
TTITLE11=Большой Каретный
TTITLE12=Охота на волков
TTITLE13=Охота на кабанов
TTITLE14=Баллада о детстве
TTITLE15=Еще не вечер
TTITLE16=Корабли
TTITLE17=О фатальных датах и цифрах
TTITLE18=Моя цыганская
TTITLE19=Кони привередливые
EXTD=
EXTT0=
EXTT1=
EXTT2=
EXTT3=
EXTT4=
EXTT5=
EXTT6=
EXTT7=
EXTT8=
EXTT9=
EXTT10=
EXTT11=
EXTT12=
EXTT13=
EXTT14=
EXTT15=
EXTT16=
EXTT17=
EXTT18=
EXTT19=
PLAYORDER=
